<?xml version="1.0" encoding="utf-8"?>
<!-- Generator: Adobe Illustrator 17.0.0, SVG Export Plug-In . SVG Version: 6.00 Build 0)  -->
<!DOCTYPE svg PUBLIC "-//W3C//DTD SVG 1.1//EN" "http://www.w3.org/Graphics/SVG/1.1/DTD/svg11.dtd">
<svg version="1.1" id="Layer_1" xmlns="http://www.w3.org/2000/svg" xmlns:xlink="http://www.w3.org/1999/xlink" x="0px" y="0px"
	 width="500px" height="755px" viewBox="0 0 500 755" enable-background="new 0 0 500 755" xml:space="preserve">
<g>
	<g>
		<path fill="#607D8B" d="M388.067,639.009h55.19v3.098h-59.435v-2.524l53.297-77.966h-51.002v-3.041h55.305v2.18L388.067,639.009z"
			/>
		<path fill="#607D8B" d="M74.232,671.469h6.581l17.972,50.625l6.834,18.984h0.506l6.581-18.984l17.972-50.625h6.581V755h-4.05
			v-58.218c0-6.581,0.253-14.934,0.506-21.769h-0.506l-6.455,18.225l-18.605,52.397h-4.809l-18.731-52.397l-6.581-18.225h-0.506
			c0.253,6.834,0.506,15.187,0.506,21.769V755h-3.797V671.469z"/>
		<path fill="#607D8B" d="M200.473,725.131h-34.045L155.924,755h-4.05l29.869-83.531h3.544L215.155,755h-4.303L200.473,725.131z
			 M199.208,721.588l-5.822-16.706c-3.544-10.125-6.581-18.731-9.619-29.109h-0.506c-3.038,10.378-6.075,18.984-9.619,29.109
			l-5.948,16.706H199.208z"/>
		<path fill="#607D8B" d="M229.919,671.469h4.303l36.956,61.256l9.619,16.453h0.506c-0.253-8.1-0.506-15.694-0.506-23.541v-54.169
			h3.797V755h-4.303l-36.956-61.256l-9.619-16.453h-0.506c0.253,7.847,0.506,14.934,0.506,22.781V755h-3.797V671.469z"/>
		<path fill="#607D8B" d="M299.528,671.469h18.732c25.818,0,37.462,16.706,37.462,41.512c0,24.806-11.644,42.018-37.462,42.018
			h-18.732V671.469z M317.753,751.456c23.794,0,33.665-16.453,33.665-38.474c0-22.022-9.872-37.969-33.665-37.969h-14.175v76.443
			H317.753z"/>
		<path fill="#607D8B" d="M409.58,725.131h-34.045L365.03,755h-4.05l29.869-83.531h3.544L424.261,755h-4.303L409.58,725.131z
			 M408.314,721.588l-5.822-16.706c-3.544-10.125-6.581-18.731-9.619-29.109h-0.506c-3.038,10.378-6.075,18.984-9.619,29.109
			l-5.948,16.706H408.314z"/>
		<path fill="#607D8B" d="M439.335,671.469h4.05V755h-4.05V671.469z"/>
		<path fill="#607D8B" d="M0,558.576h4.303l16.2,50.118c3.291,10.378,5.569,17.972,9.113,28.224h0.506
			c3.543-10.252,5.822-17.845,9.112-28.224l16.2-50.118h4.05l-27.59,83.531h-4.05L0,558.576z"/>
		<path fill="#607D8B" d="M74.232,558.576h4.05v83.531h-4.05V558.576z"/>
		<path fill="#607D8B" d="M95.873,628.186c6.075,7.087,14.934,11.643,25.06,11.643c13.415,0,22.022-7.34,22.022-17.971
			c0-11.138-7.087-14.681-15.441-18.478l-12.909-5.822c-7.087-3.164-16.959-8.1-16.959-20.503c0-11.897,10.125-19.997,23.541-19.997
			c10.125,0,17.972,4.683,22.781,9.871l-2.531,2.785c-4.809-5.316-11.644-8.859-20.25-8.859c-11.644,0-19.49,6.328-19.49,15.947
			c0,10.378,8.733,14.302,14.681,16.959l12.909,5.822c9.239,4.176,17.718,9.112,17.718,22.022c0,12.656-10.378,22.022-26.071,22.022
			c-12.403,0-21.516-5.315-27.844-12.656L95.873,628.186z"/>
		<path fill="#607D8B" d="M161.811,558.576h4.05v51.384c0,23.034,11.137,29.869,23.287,29.869c12.403,0,23.794-6.834,23.794-29.869
			v-51.384h3.797v52.397c0,25.818-14.175,32.653-27.59,32.653c-13.416,0-27.337-6.834-27.337-32.653V558.576z"/>
		<path fill="#607D8B" d="M280.145,612.239H246.1l-10.505,29.869h-4.05l29.869-83.531h3.544l29.869,83.531h-4.303L280.145,612.239z
			 M278.879,608.695l-5.822-16.706c-3.544-10.125-6.581-18.731-9.619-29.109h-0.506c-3.038,10.378-6.075,18.984-9.619,29.109
			l-5.948,16.706H278.879z"/>
		<path fill="#607D8B" d="M309.633,558.576h4.05v79.987h39.234v3.544h-43.284V558.576z"/>
		<path fill="#607D8B" d="M367.724,558.576h4.05v83.531h-4.05V558.576z"/>
		<path fill="#607D8B" d="M455.197,558.576H500v3.544h-40.753v33.665h34.172v3.543h-34.172v39.234H500v3.544h-44.803V558.576z"/>
	</g>
	<g>
		<path fill="#304FFE" d="M177.234,177.164l-0.073-0.003l0.003,0.073c0.014-0.009,0.029-0.018,0.043-0.027
			C177.216,177.193,177.225,177.179,177.234,177.164z"/>
		<path fill="#304FFE" d="M322.766,322.836l0.073,0.003l-0.003-0.073c-0.014,0.009-0.028,0.018-0.043,0.027
			C322.784,322.807,322.775,322.821,322.766,322.836z"/>
		<path fill="#304FFE" d="M223.401,150.54l-0.062-0.04l-0.034,0.065c0.017-0.001,0.034-0.001,0.051-0.002
			C223.371,150.555,223.386,150.547,223.401,150.54z"/>
		<path fill="#304FFE" d="M276.599,349.46l0.062,0.04l0.034-0.065c-0.017,0.001-0.034,0.001-0.051,0.002
			C276.629,349.445,276.614,349.453,276.599,349.46z"/>
		<path fill="#304FFE" d="M276.644,349.437c0.017-0.001,0.034-0.001,0.051-0.002l0.017-0.033
			C276.689,349.413,276.667,349.425,276.644,349.437z"/>
		<path fill="#304FFE" d="M177.272,177.166l-0.037-0.002c-0.009,0.014-0.018,0.029-0.027,0.043
			C177.229,177.193,177.25,177.18,177.272,177.166z"/>
		<path fill="#304FFE" d="M322.728,322.834l0.037,0.002c0.009-0.014,0.018-0.029,0.027-0.043
			C322.771,322.807,322.75,322.82,322.728,322.834z"/>
		<path fill="#304FFE" d="M223.356,150.563c-0.017,0.001-0.034,0.001-0.051,0.002l-0.017,0.033
			C223.311,150.587,223.333,150.575,223.356,150.563z"/>
		<path fill="#304FFE" d="M150.565,223.305l-0.065,0.034l0.04,0.062c0.008-0.015,0.016-0.03,0.023-0.045
			C150.564,223.339,150.565,223.322,150.565,223.305z"/>
		<path fill="#304FFE" d="M349.435,276.695l0.065-0.034l-0.04-0.062c-0.008,0.015-0.016,0.03-0.023,0.045
			C349.436,276.661,349.435,276.678,349.435,276.695z"/>
		<path fill="#304FFE" d="M322.793,322.793c0.014-0.009,0.028-0.018,0.043-0.027l-0.002-0.037
			C322.82,322.75,322.807,322.771,322.793,322.793z"/>
		<path fill="#304FFE" d="M177.207,177.207c-0.014,0.009-0.028,0.018-0.043,0.027l0.002,0.037
			C177.18,177.25,177.193,177.229,177.207,177.207z"/>
		<path fill="#304FFE" d="M349.402,276.712l0.033-0.017c0.001-0.017,0.001-0.034,0.002-0.051
			C349.425,276.667,349.413,276.689,349.402,276.712z"/>
		<path fill="#304FFE" d="M150.598,223.288l-0.033,0.017c-0.001,0.017-0.001,0.034-0.002,0.051
			C150.575,223.333,150.587,223.311,150.598,223.288z"/>
		<path fill="#304FFE" d="M223.305,349.435l0.034,0.065l0.062-0.04c-0.015-0.008-0.03-0.016-0.045-0.023
			C223.339,349.436,223.322,349.435,223.305,349.435z"/>
		<path fill="#304FFE" d="M276.695,150.565l-0.034-0.065l-0.062,0.04c0.015,0.008,0.03,0.016,0.045,0.023
			C276.661,150.564,276.678,150.565,276.695,150.565z"/>
		<path fill="#304FFE" d="M223.401,349.46l0.031-0.02c-0.025-0.001-0.051-0.002-0.076-0.003
			C223.371,349.445,223.386,349.453,223.401,349.46z"/>
		<path fill="#304FFE" d="M223.432,150.56l-0.031-0.02c-0.015,0.008-0.03,0.016-0.045,0.023
			C223.381,150.562,223.407,150.561,223.432,150.56z"/>
		<path fill="#304FFE" d="M276.599,150.54l-0.031,0.02c0.025,0.001,0.051,0.002,0.076,0.003
			C276.629,150.555,276.614,150.547,276.599,150.54z"/>
		<path fill="#304FFE" d="M276.568,349.44l0.031,0.02c0.015-0.008,0.03-0.016,0.045-0.023
			C276.619,349.438,276.593,349.439,276.568,349.44z"/>
		<path fill="#304FFE" d="M177.164,322.766l-0.003,0.073l0.073-0.003c-0.009-0.014-0.018-0.029-0.027-0.043
			C177.193,322.784,177.179,322.775,177.164,322.766z"/>
		<path fill="#304FFE" d="M322.836,177.234l0.003-0.073l-0.073,0.003c0.009,0.014,0.018,0.029,0.027,0.043
			C322.807,177.216,322.821,177.225,322.836,177.234z"/>
		<path fill="#304FFE" d="M276.712,150.598l-0.017-0.033c-0.017-0.001-0.034-0.001-0.051-0.002
			C276.667,150.575,276.689,150.587,276.712,150.598z"/>
		<path fill="#304FFE" d="M322.793,177.207c-0.009-0.014-0.018-0.028-0.027-0.043l-0.037,0.002
			C322.75,177.18,322.771,177.193,322.793,177.207z"/>
		<path fill="#304FFE" d="M177.207,322.793c0.009,0.014,0.018,0.029,0.027,0.043l0.037-0.002
			C177.25,322.82,177.229,322.807,177.207,322.793z"/>
		<path fill="#304FFE" d="M223.288,349.402l0.017,0.033c0.017,0.001,0.034,0.001,0.051,0.002
			C223.333,349.425,223.311,349.413,223.288,349.402z"/>
		<path fill="#304FFE" d="M150.54,276.599l-0.04,0.062l0.065,0.034c-0.001-0.017-0.001-0.034-0.002-0.051
			C150.555,276.629,150.547,276.614,150.54,276.599z"/>
		<path fill="#304FFE" d="M349.46,223.401l0.04-0.062l-0.065-0.034c0.001,0.017,0.001,0.034,0.002,0.051
			C349.445,223.371,349.453,223.386,349.46,223.401z"/>
		<path fill="#304FFE" d="M349.437,223.356c-0.001-0.017-0.001-0.034-0.002-0.051l-0.033-0.017
			C349.413,223.311,349.425,223.333,349.437,223.356z"/>
		<path fill="#304FFE" d="M150.563,276.644c0.001,0.017,0.001,0.034,0.002,0.051l0.033,0.017
			C150.587,276.689,150.575,276.667,150.563,276.644z"/>
		<path fill="#304FFE" d="M177.166,322.728l-0.002,0.037c0.014,0.009,0.028,0.018,0.043,0.027
			C177.193,322.771,177.18,322.75,177.166,322.728z"/>
		<path fill="#304FFE" d="M322.834,177.272l0.002-0.037c-0.014-0.009-0.029-0.018-0.043-0.027
			C322.807,177.229,322.82,177.25,322.834,177.272z"/>
		<path fill="#304FFE" d="M349.44,223.432l0.02-0.031c-0.008-0.015-0.016-0.03-0.023-0.045
			C349.438,223.381,349.439,223.407,349.44,223.432z"/>
		<path fill="#304FFE" d="M150.56,276.568l-0.02,0.031c0.008,0.015,0.016,0.03,0.023,0.045
			C150.562,276.619,150.561,276.593,150.56,276.568z"/>
		<path fill="#304FFE" d="M150.54,223.401l0.02,0.031c0.001-0.025,0.002-0.051,0.003-0.076
			C150.555,223.371,150.547,223.386,150.54,223.401z"/>
		<path fill="#304FFE" d="M349.437,276.644c0.008-0.015,0.016-0.03,0.023-0.045l-0.02-0.031
			C349.439,276.593,349.438,276.619,349.437,276.644z"/>
		<path fill="#FFFFFF" d="M276.712,349.402l11.072-21.419c2.001-3.87,5.99-6.282,10.316-6.282c0.18,0,0.361,0.004,0.542,0.013
			l24.086,1.12c0.022-0.014,0.043-0.027,0.065-0.041c0.014-0.021,0.027-0.043,0.041-0.064l-1.12-24.086
			c-0.211-4.533,2.238-8.775,6.269-10.859l21.419-11.072c0.012-0.023,0.023-0.045,0.035-0.068c0.001-0.025,0.002-0.051,0.003-0.076
			l-13.013-20.299c-2.449-3.821-2.449-8.718,0-12.538l13.013-20.299c-0.001-0.025-0.002-0.051-0.003-0.076
			c-0.012-0.023-0.024-0.045-0.035-0.068l-21.419-11.072c-4.032-2.084-6.48-6.325-6.269-10.859l1.12-24.086
			c-0.014-0.022-0.027-0.043-0.041-0.064c-0.022-0.014-0.043-0.027-0.064-0.041l-24.086,1.12c-0.181,0.008-0.362,0.013-0.542,0.013
			c-4.327,0-8.316-2.411-10.316-6.282l-11.072-21.419c-0.023-0.012-0.045-0.023-0.068-0.035c-0.025-0.001-0.051-0.002-0.076-0.003
			l-20.299,13.013c-1.91,1.225-4.09,1.837-6.269,1.837s-4.359-0.612-6.269-1.837l-20.299-13.013
			c-0.025,0.001-0.051,0.002-0.076,0.003c-0.023,0.012-0.045,0.023-0.068,0.035l-11.073,21.419c-2.001,3.87-5.99,6.282-10.316,6.282
			c-0.18,0-0.361-0.004-0.542-0.013l-24.086-1.12c-0.022,0.014-0.043,0.027-0.064,0.041c-0.014,0.022-0.027,0.043-0.041,0.064
			l1.12,24.086c0.211,4.533-2.238,8.775-6.269,10.859l-21.419,11.072c-0.012,0.023-0.023,0.045-0.035,0.068
			c-0.001,0.025-0.002,0.051-0.003,0.076l13.013,20.299c2.449,3.821,2.449,8.718,0,12.538l-13.013,20.299
			c0.001,0.025,0.002,0.051,0.003,0.076c0.012,0.023,0.024,0.045,0.035,0.068l21.419,11.072c4.031,2.084,6.48,6.325,6.269,10.859
			l-1.12,24.086c0.014,0.022,0.027,0.043,0.041,0.064c0.022,0.014,0.043,0.027,0.065,0.041l24.086-1.12
			c0.181-0.008,0.362-0.013,0.542-0.013c4.327,0,8.316,2.411,10.316,6.282l11.073,21.419c0.023,0.012,0.045,0.023,0.068,0.035
			c0.025,0.001,0.051,0.002,0.076,0.003l20.299-13.013c1.91-1.225,4.09-1.837,6.269-1.837s4.359,0.612,6.269,1.837l20.299,13.013
			c0.025-0.001,0.051-0.002,0.076-0.003C276.667,349.425,276.689,349.413,276.712,349.402z"/>
		<path fill="#7986CB" d="M97.936,402.064c-29.623-0.41-51.964-8.42-62.911-24.623c21.382,35.99,51.543,66.152,87.534,87.534
			C106.356,454.028,98.346,431.688,97.936,402.064z"/>
		<path fill="#5C6BC0" d="M194.341,457.723c-25.887,14.472-49.262,18.699-66.85,10.105c35.267,19.877,75.844,31.439,119.073,32.022
			C227.27,498.222,209.363,482.931,194.341,457.723z"/>
		<g>
			<path fill="#3949AB" d="M305.659,457.723c-17.726-9.91-36.629-24.621-55.659-43.31c-19.03,18.689-37.933,33.401-55.659,43.31
				C210.251,484.422,229.398,500,250,500S289.749,484.422,305.659,457.723z"/>
			<path fill="#303F9F" d="M283.993,376.864c-11.227,13.816-22.632,26.392-33.993,37.549c19.03,18.689,37.933,33.401,55.659,43.31
				c10.396-17.445,19.411-39.637,26.547-65.337C316.789,388.404,300.624,383.215,283.993,376.864z"/>
			<path fill="#283593" d="M283.993,376.864c16.631,6.351,32.796,11.54,48.214,15.522c4.26-15.343,7.849-31.937,10.664-49.515
				c-11.786,1.887-24.012,3.427-36.604,4.586C298.967,357.782,291.52,367.601,283.993,376.864z"/>
			<path fill="#1A237E" d="M322.836,322.766l0.003,0.073l-0.073-0.003c-5.393,8.487-10.902,16.703-16.499,24.621
				c12.592-1.158,24.819-2.698,36.604-4.586c1.887-11.786,3.427-24.012,4.586-36.604
				C339.539,311.864,331.323,317.373,322.836,322.766z"/>
			<path fill="#5C6BC0" d="M97.936,402.064c0.43,31.077,9.222,54.141,27.064,64.442s42.213,6.383,69.341-8.783
				c-10.396-17.445-19.411-39.637-26.547-65.337C141.968,399.056,118.242,402.345,97.936,402.064z"/>
			<path fill="#3949AB" d="M216.007,376.864c-16.631,6.351-32.796,11.54-48.214,15.522c7.136,25.7,16.151,47.892,26.547,65.337
				c17.726-9.91,36.629-24.621,55.659-43.31C238.639,403.256,227.234,390.679,216.007,376.864z"/>
			<path fill="#303F9F" d="M283.993,376.864c-11.15-4.258-22.509-9.038-33.993-14.331c-11.484,5.293-22.843,10.072-33.993,14.331
				c11.227,13.816,22.632,26.392,33.993,37.549C261.361,403.256,272.766,390.679,283.993,376.864z"/>
			<path fill="#283593" d="M276.695,349.435l-0.034,0.065l-0.062-0.04c-8.914,4.654-17.793,9.014-26.599,13.073
				c11.484,5.293,22.843,10.072,33.993,14.331c7.527-9.263,14.974-19.082,22.274-29.407
				C296.611,348.345,286.741,349.008,276.695,349.435z"/>
			<path fill="#1A237E" d="M300,336.603c-7.772,4.487-15.543,8.753-23.288,12.799l-0.017,0.033
				c10.047-0.427,19.917-1.09,29.572-1.978c5.597-7.918,11.106-16.134,16.499-24.621l-0.037-0.002
				C315.352,327.518,307.772,332.115,300,336.603z"/>
			<path fill="#1A237E" d="M336.603,300c-4.487,7.772-9.084,15.352-13.769,22.728l0.002,0.037
				c8.487-5.393,16.703-10.902,24.621-16.499c0.888-9.655,1.552-19.525,1.978-29.572l-0.033,0.017
				C345.356,284.457,341.09,292.228,336.603,300z"/>
			<path fill="#1A237E" d="M298.101,321.701c-4.327,0-8.316,2.411-10.316,6.282l-11.072,21.419
				c7.745-4.046,15.516-8.312,23.288-12.799c7.772-4.487,15.352-9.084,22.728-13.769l-24.086-1.12
				C298.462,321.705,298.281,321.701,298.101,321.701z"/>
			<path fill="#1A237E" d="M321.713,298.643l1.12,24.086c4.685-7.376,9.281-14.956,13.769-22.728
				c4.487-7.772,8.753-15.543,12.799-23.288l-21.419,11.072C323.951,289.868,321.503,294.109,321.713,298.643z"/>
		</g>
		<path fill="#FFA726" d="M305.659,42.277c25.887-14.472,49.262-18.699,66.85-10.105C337.243,12.294,296.666,0.732,253.436,0.149
			C272.73,1.778,290.637,17.069,305.659,42.277z"/>
		<path fill="#FFCC80" d="M402.064,97.936c29.623,0.41,51.964,8.42,62.911,24.623c-21.382-35.99-51.543-66.152-87.534-87.534
			C393.644,45.972,401.654,68.312,402.064,97.936z"/>
		<g>
			<path fill="#FB8C00" d="M194.341,42.277c17.726,9.91,36.629,24.621,55.659,43.31c19.03-18.689,37.933-33.401,55.659-43.31
				C289.749,15.578,270.602,0,250,0S210.251,15.578,194.341,42.277z"/>
			<path fill="#F57C00" d="M216.007,123.136c11.227-13.816,22.632-26.392,33.993-37.549c-19.03-18.689-37.933-33.401-55.659-43.31
				c-10.396,17.445-19.412,39.637-26.547,65.337C183.211,111.596,199.376,116.785,216.007,123.136z"/>
			<path fill="#EF6C00" d="M216.007,123.136c-16.631-6.351-32.796-11.54-48.214-15.522c-4.26,15.343-7.849,31.937-10.664,49.515
				c11.786-1.887,24.012-3.427,36.604-4.586C201.033,142.218,208.48,132.399,216.007,123.136z"/>
			<path fill="#E65100" d="M176.664,176.734l-0.003-0.073l0.073,0.003c5.393-8.487,10.902-16.703,16.499-24.621
				c-12.592,1.158-24.819,2.698-36.604,4.586c-1.887,11.786-3.427,24.012-4.586,36.604
				C159.961,187.636,168.177,182.127,176.664,176.734z"/>
			<path fill="#FFB74D" d="M402.064,97.936c-0.43-31.077-9.222-54.141-27.064-64.442s-42.213-6.383-69.341,8.783
				c10.396,17.445,19.412,39.637,26.547,65.337C358.032,100.944,381.758,97.655,402.064,97.936z"/>
			<path fill="#FFA726" d="M283.993,123.136c16.631-6.351,32.796-11.54,48.214-15.522c-7.136-25.7-16.151-47.892-26.547-65.337
				c-17.726,9.91-36.629,24.621-55.659,43.31C261.361,96.744,272.766,109.321,283.993,123.136z"/>
			<path fill="#FB8C00" d="M216.007,123.136c11.15,4.258,22.509,9.038,33.993,14.331c11.484-5.293,22.843-10.072,33.993-14.331
				C272.766,109.321,261.361,96.744,250,85.587C238.639,96.744,227.234,109.321,216.007,123.136z"/>
			<path fill="#F57C00" d="M223.305,150.565l0.034-0.065l0.062,0.04c8.914-4.654,17.793-9.014,26.599-13.073
				c-11.484-5.293-22.843-10.072-33.993-14.331c-7.527,9.263-14.974,19.082-22.274,29.407
				C203.389,151.655,213.259,150.992,223.305,150.565z"/>
			<path fill="#EF6C00" d="M199.5,162.897c7.772-4.487,15.543-8.754,23.288-12.799l0.017-0.033
				c-10.047,0.427-19.917,1.09-29.572,1.978c-5.597,7.918-11.106,16.134-16.499,24.621l0.037,0.002
				C184.148,171.982,191.728,167.385,199.5,162.897z"/>
			<path fill="#E65100" d="M162.897,199.5c4.487-7.772,9.084-15.352,13.769-22.728l-0.002-0.037
				c-8.487,5.393-16.703,10.902-24.621,16.499c-0.888,9.655-1.552,19.525-1.978,29.572l0.033-0.017
				C154.144,215.043,158.41,207.272,162.897,199.5z"/>
			<path fill="#EF6C00" d="M176.772,176.666l24.086,1.12c0.181,0.008,0.362,0.013,0.542,0.013c4.327,0,8.316-2.411,10.316-6.282
				l11.073-21.419c-7.745,4.046-15.516,8.312-23.288,12.799C191.728,167.385,184.148,171.982,176.772,176.666z"/>
			<path fill="#E65100" d="M150.098,222.788l21.419-11.072c4.031-2.084,6.48-6.325,6.269-10.859l-1.12-24.086
				c-4.685,7.376-9.281,14.956-13.769,22.728C158.41,207.272,154.144,215.043,150.098,222.788z"/>
		</g>
		<path fill="#F06292" d="M194.341,42.277c15.022-25.208,32.93-40.498,52.223-42.127c-43.229,0.583-83.806,12.145-119.073,32.022
			C145.079,23.577,168.454,27.804,194.341,42.277z"/>
		<path fill="#EC407A" d="M97.936,97.936c0.41-29.623,8.42-51.964,24.623-62.911c-35.99,21.382-66.152,51.543-87.534,87.534
			C45.972,106.356,68.313,98.346,97.936,97.936z"/>
		<g>
			<path fill="#EC407A" d="M167.793,107.614c7.136-25.7,16.151-47.892,26.547-65.337C167.213,27.111,142.842,23.193,125,33.494
				S98.366,66.859,97.936,97.936C118.242,97.655,141.968,100.944,167.793,107.614z"/>
			<path fill="#D81B60" d="M97.936,97.936c-31.077,0.43-54.141,9.222-64.442,27.064c-10.301,17.842-6.383,42.213,8.783,69.341
				c17.445-10.396,39.637-19.412,65.337-26.547C100.944,141.968,97.655,118.242,97.936,97.936z"/>
			<path fill="#D81B60" d="M107.614,167.793c15.343-4.26,31.937-7.849,49.515-10.664c2.815-17.578,6.404-34.172,10.664-49.515
				c-25.825-6.671-49.551-9.959-69.858-9.678C97.655,118.242,100.944,141.968,107.614,167.793z"/>
			<path fill="#C2185B" d="M123.136,216.007c-6.351-16.631-11.54-32.796-15.522-48.214c-25.701,7.136-47.892,16.151-65.337,26.547
				c9.91,17.726,24.621,36.629,43.31,55.659C96.744,238.639,109.321,227.234,123.136,216.007z"/>
			<path fill="#C2185B" d="M157.129,157.129c-17.578,2.815-34.172,6.404-49.515,10.664c3.982,15.417,9.171,31.583,15.522,48.214
				c9.263-7.527,19.082-14.974,29.407-22.274C153.702,181.142,155.242,168.915,157.129,157.129z"/>
			<path fill="#AD1457" d="M123.136,283.993c4.258-11.15,9.038-22.509,14.331-33.993c-5.293-11.484-10.072-22.843-14.331-33.993
				C109.321,227.234,96.744,238.639,85.587,250C96.744,261.361,109.321,272.766,123.136,283.993z"/>
			<path fill="#AD1457" d="M150.5,223.339l0.065-0.034c0.427-10.047,1.09-19.917,1.978-29.572
				c-10.326,7.299-20.144,14.746-29.407,22.274c4.258,11.15,9.038,22.509,14.331,33.993c4.058-8.806,8.419-17.685,13.073-26.599
				L150.5,223.339z"/>
			<path fill="#880E4F" d="M150.565,276.695l-0.065-0.034l0.04-0.062c-4.654-8.914-9.014-17.793-13.073-26.599
				c-5.293,11.484-10.072,22.843-14.331,33.993c9.263,7.527,19.082,14.974,29.407,22.274
				C151.655,296.611,150.992,286.741,150.565,276.695z"/>
			<path fill="#880E4F" d="M163.397,300c-4.487-7.772-8.753-15.543-12.799-23.288l-0.033-0.017
				c0.427,10.047,1.09,19.917,1.978,29.572c7.918,5.597,16.134,11.106,24.621,16.499l0.002-0.037
				C172.482,315.352,167.885,307.772,163.397,300z"/>
			<path fill="#880E4F" d="M150.56,276.568c-0.369-8.73-0.56-17.593-0.56-26.568s0.191-17.838,0.56-26.568l-0.02-0.031
				c-4.654,8.914-9.014,17.793-13.073,26.599c4.058,8.806,8.419,17.685,13.073,26.599L150.56,276.568z"/>
			<path fill="#880E4F" d="M163.573,243.731l-13.013-20.299c-0.369,8.73-0.56,17.593-0.56,26.568s0.191,17.838,0.56,26.568
				l13.013-20.299C166.022,252.449,166.022,247.551,163.573,243.731z"/>
			<path fill="#880E4F" d="M177.166,322.728l1.12-24.086c0.211-4.533-2.238-8.775-6.269-10.859l-21.419-11.072
				c4.046,7.745,8.312,15.516,12.799,23.288C167.885,307.772,172.482,315.352,177.166,322.728z"/>
		</g>
		<path fill="#FFF59D" d="M457.723,305.659c14.472,25.887,18.699,49.262,10.105,66.85c19.877-35.267,31.439-75.844,32.022-119.073
			C498.222,272.73,482.931,290.637,457.723,305.659z"/>
		<path fill="#FFF176" d="M457.723,194.341c25.208,15.022,40.498,32.93,42.127,52.223c-0.583-43.229-12.145-83.806-32.022-119.073
			C476.423,145.079,472.196,168.454,457.723,194.341z"/>
		<g>
			<path fill="#FFF176" d="M457.723,194.341c-9.91,17.726-24.621,36.629-43.31,55.659c18.689,19.03,33.401,37.933,43.31,55.659
				C484.422,289.749,500,270.602,500,250S484.422,210.251,457.723,194.341z"/>
			<path fill="#FFEE58" d="M392.386,167.793c25.701,7.136,47.892,16.151,65.337,26.547c15.166-27.128,19.084-51.499,8.783-69.341
				c-10.301-17.842-33.366-26.634-64.442-27.064C402.345,118.242,399.056,141.968,392.386,167.793z"/>
			<path fill="#FFEE58" d="M376.864,216.007c13.816,11.227,26.392,22.632,37.549,33.993c18.689-19.03,33.401-37.933,43.31-55.659
				c-17.445-10.396-39.637-19.412-65.337-26.547C388.404,183.211,383.215,199.376,376.864,216.007z"/>
			<path fill="#FDD835" d="M332.207,107.614c4.26,15.343,7.849,31.937,10.664,49.515c17.578,2.815,34.172,6.404,49.515,10.664
				c6.671-25.825,9.959-49.551,9.678-69.858C381.758,97.655,358.032,100.944,332.207,107.614z"/>
			<path fill="#FBC02D" d="M342.871,157.129c-2.815-17.578-6.404-34.172-10.664-49.515c-15.417,3.982-31.583,9.171-48.214,15.522
				c7.527,9.263,14.974,19.082,22.274,29.407C318.858,153.702,331.085,155.242,342.871,157.129z"/>
			<path fill="#F9A825" d="M276.661,150.5l0.034,0.065c10.047,0.427,19.917,1.09,29.572,1.978
				c-7.299-10.326-14.746-20.144-22.274-29.407c-11.15,4.258-22.509,9.038-33.993,14.331c8.806,4.058,17.685,8.419,26.599,13.073
				L276.661,150.5z"/>
			<path fill="#F9A825" d="M223.432,150.56c8.73-0.369,17.593-0.56,26.568-0.56s17.838,0.191,26.568,0.56l0.031-0.02
				c-8.914-4.654-17.793-9.014-26.599-13.073c-8.806,4.058-17.685,8.419-26.599,13.073L223.432,150.56z"/>
			<path fill="#FDD835" d="M376.864,216.007c6.351-16.631,11.54-32.796,15.522-48.214c-15.343-4.26-31.937-7.849-49.515-10.664
				c1.887,11.786,3.427,24.012,4.586,36.604C357.782,201.033,367.601,208.48,376.864,216.007z"/>
			<path fill="#FBC02D" d="M322.766,177.164l0.073-0.003l-0.003,0.073c8.487,5.393,16.703,10.902,24.621,16.499
				c-1.158-12.592-2.698-24.819-4.586-36.604c-11.786-1.887-24.012-3.427-36.604-4.586
				C311.864,160.461,317.373,168.677,322.766,177.164z"/>
			<path fill="#F9A825" d="M300,163.397c7.772,4.487,15.352,9.084,22.728,13.769l0.037-0.002
				c-5.393-8.487-10.902-16.703-16.499-24.621c-9.655-0.888-19.525-1.552-29.572-1.978l0.017,0.033
				C284.457,154.644,292.228,158.91,300,163.397z"/>
			<path fill="#F9A825" d="M250,165.41c2.179,0,4.359-0.612,6.269-1.837l20.299-13.013c-8.73-0.369-17.593-0.56-26.568-0.56
				s-17.838,0.191-26.568,0.56l20.299,13.013C245.641,164.798,247.821,165.41,250,165.41z"/>
			<path fill="#F9A825" d="M276.712,150.598l11.072,21.419c2.001,3.871,5.989,6.282,10.316,6.282c0.18,0,0.361-0.004,0.542-0.013
				l24.086-1.12c-7.376-4.685-14.956-9.281-22.728-13.769C292.228,158.91,284.457,154.644,276.712,150.598z"/>
		</g>
		<path fill="#AB47BC" d="M402.064,402.064c-0.41,29.623-8.42,51.964-24.623,62.911c35.99-21.382,66.152-51.543,87.534-87.534
			C454.028,393.644,431.688,401.654,402.064,402.064z"/>
		<path fill="#CE93D8" d="M305.659,457.723c-15.022,25.208-32.93,40.498-52.223,42.127c43.229-0.583,83.806-12.145,119.073-32.022
			C354.921,476.423,331.546,472.195,305.659,457.723z"/>
		<g>
			<path fill="#BA68C8" d="M332.207,392.386c-7.136,25.7-16.151,47.892-26.547,65.337c27.128,15.166,51.499,19.084,69.341,8.783
				s26.634-33.366,27.064-64.442C381.758,402.345,358.032,399.056,332.207,392.386z"/>
			<path fill="#8E24AA" d="M402.064,402.064c31.077-0.43,54.141-9.222,64.442-27.064c10.301-17.842,6.383-42.213-8.783-69.341
				c-17.445,10.396-39.637,19.412-65.337,26.547C399.056,358.032,402.345,381.758,402.064,402.064z"/>
			<path fill="#AB47BC" d="M392.386,332.207c-15.343,4.26-31.937,7.849-49.515,10.664c-2.815,17.578-6.404,34.172-10.664,49.515
				c25.825,6.671,49.551,9.959,69.858,9.678C402.345,381.758,399.056,358.032,392.386,332.207z"/>
			<path fill="#7B1FA2" d="M376.864,283.993c6.351,16.631,11.54,32.796,15.522,48.214c25.701-7.136,47.892-16.151,65.337-26.547
				c-9.91-17.726-24.621-36.629-43.31-55.659C403.256,261.361,390.679,272.766,376.864,283.993z"/>
			<path fill="#8E24AA" d="M342.871,342.871c17.578-2.815,34.172-6.404,49.515-10.664c-3.982-15.417-9.171-31.583-15.522-48.214
				c-9.263,7.527-19.082,14.974-29.407,22.274C346.298,318.858,344.758,331.085,342.871,342.871z"/>
			<path fill="#6A1B9A" d="M376.864,216.007c-4.258,11.15-9.038,22.509-14.331,33.993c5.293,11.484,10.072,22.843,14.331,33.993
				c13.816-11.227,26.392-22.632,37.549-33.993C403.256,238.639,390.679,227.234,376.864,216.007z"/>
			<path fill="#7B1FA2" d="M349.46,276.599l0.04,0.062l-0.065,0.034c-0.427,10.047-1.09,19.917-1.978,29.572
				c10.326-7.299,20.144-14.746,29.407-22.274c-4.258-11.15-9.038-22.509-14.331-33.993
				C358.475,258.806,354.114,267.685,349.46,276.599z"/>
			<path fill="#4A148C" d="M349.435,223.305l0.065,0.034l-0.04,0.062c4.654,8.914,9.014,17.793,13.073,26.599
				c5.293-11.484,10.072-22.843,14.331-33.993c-9.263-7.527-19.082-14.974-29.407-22.274
				C348.345,203.389,349.008,213.259,349.435,223.305z"/>
			<path fill="#4A148C" d="M336.603,200c4.487,7.772,8.753,15.543,12.799,23.288l0.033,0.017
				c-0.427-10.047-1.09-19.917-1.978-29.572c-7.918-5.597-16.134-11.106-24.621-16.499l-0.002,0.037
				C327.518,184.648,332.115,192.228,336.603,200z"/>
			<path fill="#6A1B9A" d="M349.44,223.432c0.369,8.73,0.56,17.593,0.56,26.568s-0.191,17.838-0.56,26.568l0.02,0.031
				c4.654-8.914,9.014-17.793,13.073-26.599c-4.058-8.806-8.419-17.685-13.073-26.599L349.44,223.432z"/>
			<path fill="#6A1B9A" d="M336.427,256.269l13.013,20.299c0.369-8.73,0.56-17.593,0.56-26.568s-0.191-17.838-0.56-26.568
				l-13.013,20.299C333.978,247.551,333.978,252.449,336.427,256.269z"/>
			<path fill="#4A148C" d="M322.834,177.272l-1.12,24.086c-0.211,4.533,2.238,8.775,6.269,10.859l21.419,11.072
				c-4.046-7.745-8.312-15.516-12.799-23.288C332.115,192.228,327.518,184.648,322.834,177.272z"/>
		</g>
		<path fill="#81D4FA" d="M42.277,194.341c-14.472-25.887-18.699-49.262-10.105-66.85C12.294,162.757,0.732,203.334,0.149,246.564
			C1.778,227.27,17.069,209.363,42.277,194.341z"/>
		<path fill="#29B6F6" d="M42.277,305.659c-25.208-15.022-40.498-32.93-42.127-52.223c0.583,43.229,12.145,83.806,32.022,119.073
			C23.577,354.921,27.804,331.546,42.277,305.659z"/>
		<g>
			<path fill="#4FC3F7" d="M42.277,305.659c9.91-17.726,24.621-36.629,43.31-55.659c-18.689-19.03-33.401-37.933-43.31-55.659
				C15.578,210.251,0,229.398,0,250S15.578,289.749,42.277,305.659z"/>
			<path fill="#039BE5" d="M107.614,332.207c-25.701-7.136-47.892-16.151-65.337-26.547C27.111,332.787,23.193,357.158,33.494,375
				c10.301,17.842,33.366,26.634,64.442,27.064C97.655,381.758,100.944,358.032,107.614,332.207z"/>
			<path fill="#29B6F6" d="M123.136,283.993C109.321,272.766,96.744,261.361,85.587,250c-18.689,19.03-33.401,37.933-43.31,55.659
				c17.445,10.396,39.637,19.412,65.337,26.547C111.596,316.789,116.785,300.624,123.136,283.993z"/>
			<path fill="#0288D1" d="M167.793,392.386c-4.26-15.343-7.849-31.937-10.664-49.515c-17.578-2.815-34.172-6.404-49.515-10.664
				c-6.671,25.825-9.959,49.551-9.678,69.857C118.242,402.345,141.968,399.056,167.793,392.386z"/>
			<path fill="#0277BD" d="M157.129,342.871c2.815,17.578,6.404,34.172,10.664,49.515c15.417-3.982,31.583-9.171,48.214-15.522
				c-7.527-9.263-14.974-19.082-22.274-29.407C181.142,346.298,168.915,344.758,157.129,342.871z"/>
			<path fill="#01579B" d="M223.339,349.5l-0.034-0.065c-10.047-0.427-19.917-1.09-29.572-1.978
				c7.299,10.326,14.746,20.144,22.274,29.407c11.15-4.258,22.509-9.038,33.993-14.331c-8.806-4.058-17.685-8.419-26.599-13.073
				L223.339,349.5z"/>
			<path fill="#01579B" d="M276.568,349.44c-8.73,0.369-17.593,0.56-26.568,0.56s-17.838-0.191-26.568-0.56l-0.031,0.02
				c8.914,4.654,17.793,9.014,26.599,13.073c8.806-4.058,17.685-8.419,26.599-13.073L276.568,349.44z"/>
			<path fill="#039BE5" d="M123.136,283.993c-6.351,16.631-11.54,32.796-15.522,48.214c15.343,4.26,31.937,7.849,49.515,10.664
				c-1.887-11.786-3.427-24.012-4.586-36.604C142.218,298.967,132.399,291.52,123.136,283.993z"/>
			<path fill="#0288D1" d="M177.234,322.836l-0.073,0.003l0.003-0.073c-8.487-5.393-16.703-10.902-24.621-16.499
				c1.158,12.592,2.698,24.819,4.586,36.604c11.786,1.887,24.012,3.427,36.604,4.586
				C188.136,339.539,182.627,331.323,177.234,322.836z"/>
			<path fill="#0277BD" d="M200,336.603c-7.772-4.487-15.352-9.084-22.728-13.769l-0.037,0.002
				c5.393,8.487,10.902,16.703,16.499,24.621c9.655,0.888,19.525,1.552,29.572,1.978l-0.017-0.033
				C215.543,345.356,207.772,341.09,200,336.603z"/>
			<path fill="#01579B" d="M250,334.59c-2.179,0-4.359,0.612-6.269,1.837l-20.299,13.013c8.73,0.369,17.593,0.56,26.568,0.56
				s17.838-0.191,26.568-0.56l-20.299-13.013C254.359,335.202,252.179,334.59,250,334.59z"/>
			<path fill="#0277BD" d="M223.288,349.402l-11.073-21.419c-2.001-3.871-5.989-6.282-10.316-6.282c-0.18,0-0.361,0.004-0.542,0.013
				l-24.086,1.12c7.376,4.685,14.956,9.281,22.728,13.769C207.772,341.09,215.543,345.356,223.288,349.402z"/>
		</g>
	</g>
</g>
</svg>
